<?xml version="1.0" encoding="UTF-8" standalone="no"?>
<!-- Created with Inkscape (http://www.inkscape.org/) -->

<svg
   xmlns:dc="http://purl.org/dc/elements/1.1/"
   xmlns:cc="http://creativecommons.org/ns#"
   xmlns:rdf="http://www.w3.org/1999/02/22-rdf-syntax-ns#"
   xmlns:svg="http://www.w3.org/2000/svg"
   xmlns="http://www.w3.org/2000/svg"
   xmlns:sodipodi="http://sodipodi.sourceforge.net/DTD/sodipodi-0.dtd"
   xmlns:inkscape="http://www.inkscape.org/namespaces/inkscape"
   width="64mm"
   height="64mm"
   viewBox="0 0 64 64"
   version="1.1"
   id="svg8"
   inkscape:version="0.92.5 (2060ec1f9f, 2020-04-08)"
   sodipodi:docname="clipboard.svg"
   inkscape:export-filename="/home/christian/eclipse-workspaces/Git/Apps/TinyTOTP/src/assets/clipboard.png"
   inkscape:export-xdpi="12.699955"
   inkscape:export-ydpi="12.699955">
  <defs
     id="defs2" />
  <sodipodi:namedview
     id="base"
     pagecolor="#ffffff"
     bordercolor="#666666"
     borderopacity="1.0"
     inkscape:pageopacity="0.0"
     inkscape:pageshadow="2"
     inkscape:zoom="2.8"
     inkscape:cx="102.96071"
     inkscape:cy="122.09591"
     inkscape:document-units="mm"
     inkscape:current-layer="layer1"
     showgrid="false"
     inkscape:pagecheckerboard="true"
     inkscape:window-width="1920"
     inkscape:window-height="1043"
     inkscape:window-x="1920"
     inkscape:window-y="0"
     inkscape:window-maximized="1" />
  <metadata
     id="metadata5">
    <rdf:RDF>
      <cc:Work
         rdf:about="">
        <dc:format>image/svg+xml</dc:format>
        <dc:type
           rdf:resource="http://purl.org/dc/dcmitype/StillImage" />
        <dc:title></dc:title>
      </cc:Work>
    </rdf:RDF>
  </metadata>
  <g
     inkscape:label="Layer 1"
     inkscape:groupmode="layer"
     id="layer1"
     transform="translate(0,-233)">
    <path
       style="color:#000000;font-style:normal;font-variant:normal;font-weight:normal;font-stretch:normal;font-size:medium;line-height:normal;font-family:sans-serif;font-variant-ligatures:normal;font-variant-position:normal;font-variant-caps:normal;font-variant-numeric:normal;font-variant-alternates:normal;font-feature-settings:normal;text-indent:0;text-align:start;text-decoration:none;text-decoration-line:none;text-decoration-style:solid;text-decoration-color:#000000;letter-spacing:normal;word-spacing:normal;text-transform:none;writing-mode:lr-tb;direction:ltr;text-orientation:mixed;dominant-baseline:auto;baseline-shift:baseline;text-anchor:start;white-space:normal;shape-padding:0;clip-rule:nonzero;display:inline;overflow:visible;visibility:visible;opacity:1;isolation:auto;mix-blend-mode:normal;color-interpolation:sRGB;color-interpolation-filters:linearRGB;solid-color:#000000;solid-opacity:1;vector-effect:none;fill:#000000;fill-opacity:1;fill-rule:nonzero;stroke:none;stroke-width:15.11811066;stroke-linecap:butt;stroke-linejoin:round;stroke-miterlimit:2;stroke-dasharray:none;stroke-dashoffset:0;stroke-opacity:1;paint-order:stroke fill markers;color-rendering:auto;image-rendering:auto;shape-rendering:auto;text-rendering:auto;enable-background:accumulate"
       d="m 52.914062,30.236328 c -12.4324,0 -22.677734,10.245319 -22.677734,22.677734 v 75.589848 c 0,12.43241 10.245334,22.67773 22.677734,22.67773 h 11.337907 c 11.338567,0 11.338567,-15.11914 0,-15.11914 H 52.914062 c -4.318465,0 -7.560546,-3.24014 -7.560546,-7.55859 V 52.914062 c 0,-4.31845 3.242081,-7.560546 7.560546,-7.560546 h 75.589848 c 4.31846,0 7.55859,3.242096 7.55859,7.560546 v 11.337907 c 0,11.338582 15.11914,11.338582 15.11914,0 V 52.914062 c 0,-12.432415 -10.24533,-22.677734 -22.67773,-22.677734 z m 60.472658,60.472656 c -12.4324,0 -22.677736,10.245316 -22.677736,22.677736 v 75.58984 c 0,12.43242 10.245336,22.67774 22.677736,22.67774 h 75.58984 c 12.4324,0 22.67774,-10.24532 22.67774,-22.67774 v -75.58984 c 0,-12.43242 -10.24534,-22.677736 -22.67774,-22.677736 z m 0,15.117186 h 75.58984 c 4.31847,0 7.5586,3.2421 7.5586,7.56055 v 75.58984 c 0,4.31845 -3.24013,7.5586 -7.5586,7.5586 h -75.58984 c -4.31847,0 -7.56055,-3.24015 -7.56055,-7.5586 v -75.58984 c 0,-4.31845 3.24208,-7.56055 7.56055,-7.56055 z"
       transform="matrix(0.26458333,0,0,0.26458333,0,233)"
       id="rect835"
       inkscape:connector-curvature="0"
       inkscape:export-filename="/home/christian/eclipse-workspaces/Git/Apps/TinyTOTP/src/assets/clipboard.png"
       inkscape:export-xdpi="12.699955"
       inkscape:export-ydpi="12.699955"
       sodipodi:nodetypes="sssssssssssssssssssssssssssssssssss" />
  </g>
</svg>
